<?xml version="1.0" encoding="utf-8"?>
<!-- Generator: Adobe Illustrator 23.1.0, SVG Export Plug-In . SVG Version: 6.00 Build 0)  -->
<svg version="1.1"
	 id="svg2" inkscape:version="0.47 r22583" sodipodi:docname="Scratch.svg" xmlns:cc="http://creativecommons.org/ns#" xmlns:dc="http://purl.org/dc/elements/1.1/" xmlns:inkscape="http://www.inkscape.org/namespaces/inkscape" xmlns:rdf="http://www.w3.org/1999/02/22-rdf-syntax-ns#" xmlns:sodipodi="http://sodipodi.sourceforge.net/DTD/sodipodi-0.dtd" xmlns:svg="http://www.w3.org/2000/svg"
	 xmlns="http://www.w3.org/2000/svg" xmlns:xlink="http://www.w3.org/1999/xlink" x="0px" y="0px" viewBox="0 0 420.3 136.8"
	 style="enable-background:new 0 0 420.3 136.8;" xml:space="preserve">
<style type="text/css">
	.st0{opacity:0.25;}
	.st1{fill:#FAFAFA;}
	.st2{fill:url(#path3602_2_);}
	.st3{fill:#FFA749;}
	.st4{fill:url(#path3614_2_);}
	.st5{fill:url(#path3634_2_);}
	.st6{fill:url(#path3653_2_);}
	.st7{fill:url(#path3672_2_);}
	.st8{fill:url(#path3614-9_2_);}
	.st9{fill:url(#path3655_2_);}
</style>
<path class="st0" d="M408.8,108.5c-0.5-6.4-4.8-11.2-10.5-11.9l-1-56.8c8-1.8,11.1-7,11.1-11.9c0-7.8-4.5-12.5-12.1-12.5
	c-0.3,0-0.6,0-0.9,0c-0.2,0-0.5,0-0.7,0h-19.2l-0.4,0c-4.3,0.5-8.7,2.4-11.3,5.7c-0.2,0-0.4,0-0.5,0h-20.5l-0.2,0
	c-6.2,0.4-12.9,3.9-14,10.9c-0.3,0-0.6,0-1,0c-6.3,0-10.3,4.2-11.7,8.5c0,0-0.1,0-0.1,0c-3.5-0.6-6.7-0.8-9.3-0.8
	c-2.8,0-4.8,0.3-6.4,0.8c0.1-1.3,0.1-2.4,0.2-2.9c1.1-5.4-1.2-9.8-1.7-10.7l-0.1-0.2l-0.2-0.2c-1.7-2.5-5.4-5.2-10.7-5.2
	c-1.6,0-3.3,0.2-4.9,0.7c-3.3,0.9-15.2,1.8-22.8,2.1c-2.5-0.2-14.5-1.2-21.4-1.2c-2.1,0-3.6,0.1-4.7,0.3l-0.4,0.1
	c-4.5,0.8-10.8,1.8-12.9,8.9c-0.2,0.7-0.6,1.9-0.3,5.5c-2.6-6.6-4.7-12.1-5.4-14c-2.2-5.9-6.3-9-12.3-9l-0.2,0
	c-1.7,0-3.4,0.2-5.4,0.5c-1.2,0.1-2.4,0.3-3.8,0.4l-0.3,0c-7.7,0.7-14.9,1.3-18.8,6.5c-1.4,1.8-2.9,5-2,9.5
	c0.8,4.1,4.3,8.6,11.8,8.6c1,0,1.9-0.1,2.9-0.2l-5.7,28.9h-6.5l-0.7,0.2c-1.5,0.3-3.1,0.9-4.5,1.7c-0.2-0.9-0.5-1.8-0.9-2.8
	c-0.6-1.6-1.5-3.6-2.3-5.1c4.1-3.7,7.9-9.6,7.7-18.1c-0.4-17.8-15.9-20.8-21-21.8c-1.4-0.3-3.4-0.4-6-0.4l-0.3,0
	c-9.5,0-26.4,1.6-27.1,1.7l-0.2,0l-0.2,0c-5.3,0.9-11.5,4-13.1,9.9c-5.7,0.4-9.5,4.4-10.7,8.4c0,0-0.1,0-0.1,0
	c-3.5-0.6-6.7-0.8-9.3-0.8c-4.3,0-6.8,0.7-8.3,1.6c-2.4,1.1-5,3.1-6.9,5.1l0.6-16.9c0.3-2.1,0.7-7.4-2.6-11.4
	c-2.1-2.6-5.3-4.1-9-4.1c-0.2,0-0.4,0-0.7,0c-3.6,0.2-6.7,1.7-8.8,4.3c-1.9-0.6-4.2-1.1-6.9-1.3C42.3,19,41.6,19,40.9,19
	c-12.6,0-18.3,8.8-19.6,13.8c-0.7,2.1-3.7,11.7-2.6,22.1c0.3,3.1,1.4,5.9,2.8,8.3c-1.7,0.8-2.8,1.8-3.6,2.8c-2,2.4-2.6,5.3-2.4,7.4
	l0.5,30.4l0.1,0.5c0.8,4.6,4.8,9.3,11,9.3c0.2,0,0.3,0,0.5,0c5.9-0.2,9.9-4.5,11.6-8.1l0.2-0.5c1,0.2,2,0.4,3.1,0.5
	c0.8,0.1,1.6,0.1,2.4,0.1c6.7,0,12.7-2.7,14.8-3.7c1.2-0.4,2.5-1,3.9-1.8C66.4,109,75.1,117,93,117.5c0.4,0,0.7,0,1.1,0
	c9.5,0,16.2-4,20.7-9c0.2,0.1,0.5,0.2,0.7,0.3c2.5,1,4.8,1.1,5.5,1.1c0,0,0.3,0,0.3,0l0.3,0c20.2-1.8,22.8-3.4,24-4.2
	c2.1-1.3,3.6-2.7,4.6-4c0.9,2,2.2,3.8,3.9,5.3c4.2,3.7,6.8,5.5,11.9,5.5c0.3,0,1.6,0,1.9,0c6.7,0,16.1-4.9,18.8-11.9
	c1-2.6,1.5-4.9,1.6-6.8c0.1,0,0.1,0,0.2,0c0.4,0,0.9,0,1.3,0c0.3,0,0.7,0,1,0c0.2,0,0.8,0,1.1,0c1.7,0.3,3,0.4,4.1,0.4
	c4.8,0,7.3-2.4,8.6-4.4c-0.1,2.1,0.3,4.1,1.1,5.7c1.4,5,7.5,6.3,11,6.3c2.2,0,4.3-0.5,6.3-1.3c1-0.5,2.5-1.3,5.3-2.9
	c3.1-1.8,7.9-4.6,10.9-6c-1.9,1.9-3.2,4.6-3.2,7.9c0,6.9,5.3,11.1,10.3,12.1l0.7,0.1l27.7-0.5l0.8-0.2c4.7-1.2,9.5-5.5,9.2-12.3
	c3,8.7,11.8,16.3,29.3,16.9c0.4,0,0.7,0,1.1,0c0,0,0,0,0,0c7.4,0,13.1-2.4,17.4-5.9c1.9,1.9,4.3,3.1,6,3.6l1,0.3h9.3
	c2,0.2,7.7,0.9,11.6,1.2c0,0.1,0,0.3,0,0.4c0.8,6.2,6,10.4,12.8,10.4c1.9,0,3.9-0.3,5.5-1c2.9-1.1,8.9-3,13-3c0.4,0,0.7,0,1,0
	c0.8,0.1,1.5,0.1,2.2,0.1c4.4,0,8.2-1.5,10.8-4.3C407.9,114.9,409,111.7,408.8,108.5z M43.5,48.7c0.3,1.1,0.5,2.2,0.7,3.1
	c-0.3-0.1-0.7-0.1-1-0.2L43.5,48.7z M51.4,80.4c-1.4,0.9-3.7,2.1-6.3,2.1c-0.2,0-0.3,0-0.5,0c-1.7-0.1-3.1-3.2-3.5-4.6l-0.3-2.4
	l3.6,0.2c2.6,0.2,6,1.1,7,1.9C51.6,78.2,51.6,79.3,51.4,80.4z M97.6,78.8l0,1.5l0.1,0.2c0,1.3,0.1,4.4,0,10.9c0,2.4-4.9,2.8-4.9,2.8
	l-0.5,0l-0.7,0.2c-0.1,0-0.5,0.1-0.9,0.1h0c-2.3,0-3.2-1-3.8-2.7c-2.3-6.1-1.1-17.3-0.4-21.1l0.1-0.3l0-0.3c0.1-1.4,0.8-3.8,1.5-4.6
	c0.7-0.1,1.3-0.1,1.8-0.1c1.6,0,2.4,0.2,4,2.1c0.9,2.1,2.6,4.2,5,5.7C97.6,75.7,97.6,78.2,97.6,78.8z M143.1,83.3
	c-0.1-3.3-0.2-6.9-0.4-9.9c0.6,0.5,1.2,1.3,1.7,2.7c0.5,1.3,1.6,5.8,1.9,7.7c0,0.2,0.1,0.3,0.1,0.5
	C145.4,83.9,144.3,83.5,143.1,83.3z M143.3,48.2c-0.2,0-0.5,0-0.7,0c-0.1,0-0.2,0-0.3,0l-0.1-1.9c1.5,0.1,3,0.1,4.3,0.2
	c1.3,0.1,1.9,0.4,2.3,0.6C147.2,47.5,144.3,48.1,143.3,48.2z M209.1,80.8c-0.5,0.4-0.9,0.9-1.3,1.3c0.1-0.5,0.1-1.1,0-1.6
	c0.6-0.1,1.3-0.2,2-0.3C209.5,80.4,209.3,80.6,209.1,80.8z M246.9,48.4l0.9,0l0.1,25.8c-0.2-0.4-0.4-0.8-0.5-1.1
	c-1.2-2.5-3.3-4.3-5.8-5.4c3.3-1.5,5.8-4.7,5.8-11.6C247.4,53.7,247.2,50.9,246.9,48.4z M247.9,87.4c-0.6,0.1-1.3,0.2-1.9,0.3
	c0.9-0.9,1.6-1.8,2-2.6l0,2.3L247.9,87.4z M273.2,86.7l-0.7-39.3c0.7,0,1.4,0,2.1,0c-0.1,1.8-0.1,3.2-0.1,4.3c0,1.6,0.3,4.3,2.4,6.7
	c1.3,1.5,3.5,3.1,7.1,3.7c-0.4,2.1-0.6,3.7-0.6,4l0,0.3l0,0.3c0,0.7-0.3,17.7-0.1,25c0,0.6,0.1,1.2,0.1,1.8
	C281.7,89.2,278,86.8,273.2,86.7z M318.4,76.7l0,1.6l0.1,0.2c0,1.3,0.1,4.4,0,10.9c0,2.4-4.9,2.8-4.9,2.8l-0.5,0l-0.7,0.2
	c-0.1,0-0.5,0.1-0.9,0.1h0c-2.3,0-3.2-1-3.8-2.7c-2.3-6.1-1.1-17.3-0.4-21.1l0-0.3l0-0.3c0.2-1.7,0.9-3.9,1.5-4.6
	c0.7-0.1,1.3-0.1,1.8-0.1c1.6,0,2.4,0.2,4,2.1c0.9,2.1,2.6,4.2,5,5.7C318.4,73.6,318.4,76.1,318.4,76.7z M340.4,67.7
	c-0.4-0.4-0.8-0.8-1.4-1.1c0.7-1.5,1.1-3,1.1-4.3c0-1.2,0.1-9.8,0.1-15.3c0.1,0,0.1,0,0.2,0L340.4,67.7z M365.4,46
	c2.5-0.5,5.1-1.7,7.1-3.5l0.8,12.2l-8,0.7l-0.1-9.3L365.4,46z M372.9,94.4c-2.2-2.3-5.3-3.6-7.9-4.2l-0.2-9.3c3-0.6,6-1.1,8.2-1.5
	l0.7,15.9C373.4,95,373.1,94.7,372.9,94.4z"/>
<path class="st1" d="M404.8,104.5c-0.5-6.4-4.8-11.2-10.5-11.9l-1-56.8c8-1.8,11.1-7,11.1-11.9c0-7.8-4.5-12.5-12.1-12.5
	c-0.3,0-0.6,0-0.9,0c-0.2,0-0.5,0-0.7,0h-19.2l-0.4,0c-4.3,0.5-8.7,2.4-11.3,5.7c-0.2,0-0.4,0-0.5,0h-20.5l-0.2,0
	c-6.2,0.4-12.9,3.9-14,10.9c-0.3,0-0.6,0-1,0c-6.3,0-10.3,4.2-11.7,8.5c0,0-0.1,0-0.1,0c-3.5-0.6-6.7-0.8-9.3-0.8
	c-2.8,0-4.8,0.3-6.4,0.8c0.1-1.3,0.1-2.4,0.2-2.9c1.1-5.4-1.2-9.8-1.7-10.7l-0.1-0.2l-0.2-0.2c-1.7-2.5-5.4-5.2-10.7-5.2
	c-1.6,0-3.3,0.2-4.9,0.7c-3.3,0.9-15.2,1.8-22.8,2.1c-2.5-0.2-14.5-1.2-21.4-1.2c-2.1,0-3.6,0.1-4.7,0.3l-0.4,0.1
	c-4.5,0.8-10.8,1.8-12.9,8.9c-0.2,0.7-0.6,1.9-0.3,5.5c-2.6-6.6-4.7-12.1-5.4-14c-2.2-5.9-6.3-9-12.3-9l-0.2,0
	c-1.7,0-3.4,0.2-5.4,0.5c-1.2,0.1-2.4,0.3-3.8,0.4l-0.3,0c-7.7,0.7-14.9,1.3-18.8,6.5c-1.4,1.8-2.9,5-2,9.5
	c0.8,4.1,4.3,8.6,11.8,8.6c1,0,1.9-0.1,2.9-0.2l-5.7,28.9h-6.5l-0.7,0.2c-1.5,0.3-3.1,0.9-4.5,1.7c-0.2-0.9-0.5-1.8-0.9-2.8
	c-0.6-1.6-1.5-3.6-2.3-5.1c4.1-3.7,7.9-9.6,7.7-18.1c-0.4-17.8-15.9-20.8-21-21.8c-1.4-0.3-3.4-0.4-6-0.4l-0.3,0
	c-9.5,0-26.4,1.6-27.1,1.7l-0.2,0l-0.2,0c-5.3,0.9-11.5,4-13.1,9.9c-5.7,0.4-9.5,4.4-10.7,8.4c0,0-0.1,0-0.1,0
	c-3.5-0.6-6.7-0.8-9.3-0.8c-4.3,0-6.8,0.7-8.3,1.6c-2.4,1.1-5,3.1-6.9,5.1l0.6-16.9c0.3-2.1,0.7-7.4-2.6-11.4
	c-2.1-2.6-5.3-4.1-9-4.1c-0.2,0-0.4,0-0.7,0c-3.6,0.2-6.7,1.7-8.8,4.3c-1.9-0.6-4.2-1.1-6.9-1.3C38.3,15,37.6,15,36.9,15
	c-12.6,0-18.3,8.8-19.6,13.8c-0.7,2.1-3.7,11.7-2.6,22.1c0.3,3.1,1.4,5.9,2.8,8.3c-1.7,0.8-2.8,1.8-3.6,2.8c-2,2.4-2.6,5.3-2.4,7.4
	l0.5,30.4l0.1,0.5c0.8,4.6,4.8,9.3,11,9.3c0.2,0,0.3,0,0.5,0c5.9-0.2,9.9-4.5,11.6-8.1l0.2-0.5c1,0.2,2,0.4,3.1,0.5
	c0.8,0.1,1.6,0.1,2.4,0.1c6.7,0,12.7-2.7,14.8-3.7c1.2-0.4,2.5-1,3.9-1.8C62.4,105,71.1,113,89,113.5c0.4,0,0.7,0,1.1,0
	c9.5,0,16.2-4,20.7-9c0.2,0.1,0.5,0.2,0.7,0.3c2.5,1,4.8,1.1,5.5,1.1c0,0,0.3,0,0.3,0l0.3,0c20.2-1.8,22.8-3.4,24-4.2
	c2.1-1.3,3.6-2.7,4.6-4c0.9,2,2.2,3.8,3.9,5.3c4.2,3.7,6.8,5.5,11.9,5.5c0.3,0,1.6,0,1.9,0c6.7,0,16.1-4.9,18.8-11.9
	c1-2.6,1.5-4.9,1.6-6.8c0.1,0,0.1,0,0.2,0c0.4,0,0.9,0,1.3,0c0.3,0,0.7,0,1,0c0.2,0,0.8,0,1.1,0c1.7,0.3,3,0.4,4.1,0.4
	c4.8,0,7.3-2.4,8.6-4.4c-0.1,2.1,0.3,4.1,1.1,5.7c1.4,5,7.5,6.3,11,6.3c2.2,0,4.3-0.5,6.3-1.3c1-0.5,2.5-1.3,5.3-2.9
	c3.1-1.8,7.9-4.6,10.9-6c-1.9,1.9-3.2,4.6-3.2,7.9c0,6.9,5.3,11.1,10.3,12.1l0.7,0.1l27.7-0.5l0.8-0.2c4.7-1.2,9.5-5.5,9.2-12.3
	c3,8.7,11.8,16.3,29.3,16.9c0.4,0,0.7,0,1.1,0c0,0,0,0,0,0c7.4,0,13.1-2.4,17.4-5.9c1.9,1.9,4.3,3.1,6,3.6l1,0.3h9.3
	c2,0.2,7.7,0.9,11.6,1.2c0,0.1,0,0.3,0,0.4c0.8,6.2,6,10.4,12.8,10.4c1.9,0,3.9-0.3,5.5-1c2.9-1.1,8.9-3,13-3c0.4,0,0.7,0,1,0
	c0.8,0.1,1.5,0.1,2.2,0.1c4.4,0,8.2-1.5,10.8-4.3C403.9,110.9,405,107.7,404.8,104.5z M39.5,44.7c0.3,1.1,0.5,2.2,0.7,3.1
	c-0.3-0.1-0.7-0.1-1-0.2L39.5,44.7z M47.4,76.4c-1.4,0.9-3.7,2.1-6.3,2.1c-0.2,0-0.3,0-0.5,0c-1.7-0.1-3.1-3.2-3.5-4.6l-0.3-2.4
	l3.6,0.2c2.6,0.2,6,1.1,7,1.9C47.6,74.2,47.6,75.3,47.4,76.4z M93.6,74.8l0,1.5l0.1,0.2c0,1.3,0.1,4.4,0,10.9c0,2.4-4.9,2.8-4.9,2.8
	l-0.5,0l-0.7,0.2c-0.1,0-0.5,0.1-0.9,0.1h0c-2.3,0-3.2-1-3.8-2.7c-2.3-6.1-1.1-17.3-0.4-21.1l0.1-0.3l0-0.3c0.1-1.4,0.8-3.8,1.5-4.6
	c0.7-0.1,1.3-0.1,1.8-0.1c1.6,0,2.4,0.2,4,2.1c0.9,2.1,2.6,4.2,5,5.7C93.6,71.7,93.6,74.2,93.6,74.8z M139.1,79.3
	c-0.1-3.3-0.2-6.9-0.4-9.9c0.6,0.5,1.2,1.3,1.7,2.7c0.5,1.3,1.6,5.8,1.9,7.7c0,0.2,0.1,0.3,0.1,0.5
	C141.4,79.9,140.3,79.5,139.1,79.3z M139.3,44.2c-0.2,0-0.5,0-0.7,0c-0.1,0-0.2,0-0.3,0l-0.1-1.9c1.5,0.1,3,0.1,4.3,0.2
	c1.3,0.1,1.9,0.4,2.3,0.6C143.2,43.5,140.3,44.1,139.3,44.2z M205.1,76.8c-0.5,0.4-0.9,0.9-1.3,1.3c0.1-0.5,0.1-1.1,0-1.6
	c0.6-0.1,1.3-0.2,2-0.3C205.5,76.4,205.3,76.6,205.1,76.8z M242.9,44.4l0.9,0l0.1,25.8c-0.2-0.4-0.4-0.8-0.5-1.1
	c-1.2-2.5-3.3-4.3-5.8-5.4c3.3-1.5,5.8-4.7,5.8-11.6C243.4,49.7,243.2,46.9,242.9,44.4z M243.9,83.4c-0.6,0.1-1.3,0.2-1.9,0.3
	c0.9-0.9,1.6-1.8,2-2.6l0,2.3L243.9,83.4z M269.2,82.7l-0.7-39.3c0.7,0,1.4,0,2.1,0c-0.1,1.8-0.1,3.2-0.1,4.3c0,1.6,0.3,4.3,2.4,6.7
	c1.3,1.5,3.5,3.1,7.1,3.7c-0.4,2.1-0.6,3.7-0.6,4l0,0.3l0,0.3c0,0.7-0.3,17.7-0.1,25c0,0.6,0.1,1.2,0.1,1.8
	C277.7,85.2,274,82.8,269.2,82.7z M314.4,72.7l0,1.6l0.1,0.2c0,1.3,0.1,4.4,0,10.9c0,2.4-4.9,2.8-4.9,2.8l-0.5,0l-0.7,0.2
	c-0.1,0-0.5,0.1-0.9,0.1h0c-2.3,0-3.2-1-3.8-2.7c-2.3-6.1-1.1-17.3-0.4-21.1l0-0.3l0-0.3c0.2-1.7,0.9-3.9,1.5-4.6
	c0.7-0.1,1.3-0.1,1.8-0.1c1.6,0,2.4,0.2,4,2.1c0.9,2.1,2.6,4.2,5,5.7C314.4,69.6,314.4,72.1,314.4,72.7z M336.4,63.7
	c-0.4-0.4-0.8-0.8-1.4-1.1c0.7-1.5,1.1-3,1.1-4.3c0-1.2,0.1-9.8,0.1-15.3c0.1,0,0.1,0,0.2,0L336.4,63.7z M361.4,42
	c2.5-0.5,5.1-1.7,7.1-3.5l0.8,12.2l-8,0.7l-0.1-9.3L361.4,42z M368.9,90.4c-2.2-2.3-5.3-3.6-7.9-4.2l-0.2-9.3c3-0.6,6-1.1,8.2-1.5
	l0.7,15.9C369.4,91,369.1,90.7,368.9,90.4z"/>
<g id="layer2" transform="translate(11.312723,11.451373)" inkscape:groupmode="layer" inkscape:label="Vectorized">
	<g>
		
			<linearGradient id="path3602_2_" gradientUnits="userSpaceOnUse" x1="18.948" y1="122.2093" x2="18.948" y2="37.6146" gradientTransform="matrix(1 0 0 -1 11.3127 129.3158)">
			<stop  offset="0" style="stop-color:#F88000"/>
			<stop  offset="1" style="stop-color:#FFD6A9"/>
		</linearGradient>
		<path id="path3602_1_" sodipodi:nodetypes="csccscscsccscsscsccsccsccscsccscsc" class="st2" d="M38.8,16.6c0,0-1.6-8.7,4.9-9
			c6.6-0.3,4.9,7.8,4.9,7.8l-0.7,22.1c0,0,0,6.3-5.7,6.1s-6.1-7-6.1-7s-0.9-5.4-2.4-9s-4.5-7.3-4.5-7.3s-2.4-1.5-4.2-0.1
			c-1.8,1.3-3.1,6.1-3.1,6.1l-1,9.6c0,0-0.3,4.2,1.3,5.5c1.6,1.3,6.1,1.9,6.1,1.9c-0.2,0.1,7.7,0.6,10.7,1.5
			c2.2,0.6,12.8,1.8,14.2,16.6C54.6,76.1,41.6,80,41.6,80s-7,3.8-13.7,3.1c-8.2-0.9-10.3-4.3-10.3-4.3l-0.1,8.4c0,0-1.8,3.9-5.5,4
			s-4.3-3.4-4.3-3.4L7.2,57.6c0,0-0.7-4.3,6.1-4.2s5.1,5.1,5.1,5.1l0.6,5.2c0,0,2.2,9.9,10,10.3S42.4,69,42.4,69s2.5-7.8-1-11.5
			c-3.6-3.7-11.8-4.2-11.8-4.2L24,53c0,0-12.7-4-13.7-14.2c-1-10.1,2.4-19.4,2.4-19.4s2.2-9.7,14.5-8.8
			C37.4,11.3,38.2,16.9,38.8,16.6z"/>
		<path class="st3" d="M11.7,91.7c-3.1,0-4.4-2.5-4.6-3.9L6.7,57.6l0,0c0,0-0.3-1.5,0.9-2.9c1.1-1.3,3-1.9,5.7-1.8
			c2.5,0.1,4.2,0.7,5.1,2c1,1.4,0.6,3.1,0.4,3.6l0.6,5.1c0,0,2.2,9.4,9.5,9.9c6.9,0.4,12.2-4.2,13-4.9c0.3-1,2.1-7.6-1-10.9
			c-3.4-3.5-11.4-4-11.5-4l-5.6-0.3c-0.5-0.2-13-4.2-14.1-14.6c-1-10.1,2.4-19.5,2.4-19.6c0,0,2.5-10.1,15-9.1
			c6.9,0.5,9.7,3.2,10.9,4.8c-0.1-1.7,0.1-4.1,1.5-5.9c1-1.2,2.3-1.9,4.1-1.9C45.6,7,47,7.6,48,8.7c2.1,2.4,1.2,6.6,1.2,6.8l-0.7,22
			c0,0.1,0,3.2-2,5.1c-1.1,1-2.5,1.5-4.2,1.5c-6.1-0.2-6.6-7.4-6.6-7.5c0,0-0.9-5.3-2.4-8.8c-1.3-3.2-3.9-6.6-4.3-7.1
			c-0.4-0.2-2.2-1.1-3.5-0.1c-1.4,1-2.6,4.6-3,5.9l-1,9.5c-0.1,1.1,0,4.1,1.2,5.1c1.5,1.2,5.8,1.8,5.9,1.8l0.8,0.1
			c0.2,0,0.5,0.1,0.8,0.1c2.5,0.2,7,0.7,9.2,1.3c0.2,0,0.4,0.1,0.7,0.2c3.1,0.7,12.6,2.9,13.9,16.8c1.3,14.5-11,18.9-11.9,19.2
			c-0.7,0.4-7.4,3.9-14,3.2c-5.4-0.6-8.4-2.3-9.8-3.5l-0.2,7.3c-0.1,0.2-2,4.2-6,4.3C11.9,91.7,11.8,91.7,11.7,91.7z M12.9,53.9
			c-2.2,0-3.8,0.5-4.6,1.5c-0.8,1-0.7,2.1-0.7,2.1l0.5,30.2c0,0.1,0.6,3.1,3.8,2.9c3.1-0.1,4.8-3.1,5-3.7l0.1-8.2l0.5,0l0.4-0.3
			c0,0,2.1,3.3,9.9,4.1c6.5,0.7,13.4-3,13.4-3.1l0.1,0c0.5-0.2,12.6-4,11.3-18.1c-1.2-13.2-9.8-15.2-13.1-16
			c-0.3-0.1-0.5-0.1-0.7-0.2c-2.1-0.6-6.6-1-9.1-1.3c-0.8-0.1-1.3-0.1-1.6-0.2v0c-0.2,0-4.6-0.6-6.4-2c-1.8-1.5-1.6-5.5-1.5-5.9
			l1-9.6c0.1-0.3,1.4-5,3.3-6.5c2-1.5,4.6,0.1,4.7,0.1l0.1,0.1c0.1,0.2,3,3.8,4.5,7.4c1.5,3.6,2.4,8.8,2.4,9.1
			c0,0.3,0.5,6.5,5.6,6.6c1.4,0,2.6-0.4,3.5-1.2c1.7-1.6,1.7-4.4,1.7-4.4l0.7-22.1c0-0.1,0.8-4-1-6c-0.8-0.9-1.9-1.3-3.4-1.2
			c-1.5,0.1-2.6,0.6-3.4,1.6c-1.9,2.4-1.1,6.8-1.1,6.8l0.1,0.4L39,17c-0.5,0.3-0.9-0.2-1.2-0.7c-0.9-1.4-3-4.6-10.7-5.2
			c-11.6-0.8-13.9,8-14,8.4c-0.1,0.2-3.4,9.4-2.4,19.2c1,9.4,12.4,13.4,13.3,13.7l5.5,0.3c0.3,0,8.4,0.5,12.1,4.3
			c3.7,3.9,1.3,11.7,1.2,12l0,0.1l-0.1,0.1c-0.2,0.2-5.9,5.7-13.8,5.2c-8-0.5-10.4-10.6-10.5-10.7l-0.6-5.4l0-0.1
			c0,0,0.6-1.6-0.3-2.8c-0.7-1-2.2-1.5-4.3-1.6C13.2,53.9,13.1,53.9,12.9,53.9z"/>
	</g>
	<g>
		
			<linearGradient id="path3614_2_" gradientUnits="userSpaceOnUse" x1="66.137" y1="116.6942" x2="66.137" y2="46.8435" gradientTransform="matrix(1 0 0 -1 11.3127 129.3158)">
			<stop  offset="0" style="stop-color:#F88000"/>
			<stop  offset="1" style="stop-color:#FFD6A9"/>
		</linearGradient>
		<path id="path3614_1_" sodipodi:nodetypes="csccsscsscsccsscscscscsc" class="st4" d="M89.3,63.1c0,0-0.1-5.4,6-5.2
			s5.5,4.9,5.5,4.9L99.9,77c0,0-3.3,18.7-21.9,18.1s-23.6-9.7-23.7-17c-0.1-7.3,0.1-24.8,0.1-24.8s0.5-5.3,2.4-9.4l2.1-4.5
			c1.1-2.3,6.5-5.7,6.6-5.4c0-0.1,2.6-1.6,13.1,0c6.5,1,7.5,4.8,7.5,4.8l0.3-9.3c0,0,0.9-3.9,5.1-3.9c4.2,0,5.5,1.2,5.7,4.2
			s0,19,0,19s0,3.9-5.7,3.9s-6.6-4.2-6.6-4.2c-3.1-4-6.2-6.4-13.3-5.4C65.1,44.1,64.3,54,64.3,54s-2.7,15.5,0.7,24.8s12.8,7,12.8,7
			s11.3-0.6,11.5-9.7S89.4,63.4,89.3,63.1z"/>
		<path class="st3" d="M78.8,95.6c-0.3,0-0.6,0-0.9,0c-21.5-0.7-24.1-12.5-24.2-17.5c-0.1-7.2,0.1-24.6,0.1-24.8
			c0-0.3,0.5-5.5,2.4-9.6l2.1-4.5c1-2.1,5.7-5.4,6.9-5.7c1-0.5,4.7-1.3,13.4,0c3.9,0.6,5.9,2.2,6.9,3.4l0.2-7.4c0-0.1,1-4.4,5.6-4.4
			c4.3,0,6,1.3,6.2,4.7c0.1,3,0,18.3,0,19c0,0-0.1,4.4-6.2,4.4c-5.4,0-6.8-3.7-7-4.5c-3.2-4.1-6.1-6.1-12.8-5.1
			c-5.9,0.8-6.7,10.3-6.7,10.4c0,0.2-2.6,15.5,0.7,24.6c3.2,8.7,11.9,6.8,12.3,6.7c0.5,0,11-0.7,11.1-9.2c0.2-9.3,0-12.4-0.1-12.8
			l0-0.1l0-0.1c0-0.1,0-2.4,1.6-4.1c1.1-1.1,2.8-1.7,4.9-1.6c2.2,0.1,3.9,0.7,4.9,1.9c1.4,1.6,1.1,3.5,1.1,3.6L100.3,77
			C100.3,77.3,96.9,95.6,78.8,95.6z M65.4,34.5c-0.6,0.1-5.2,3.2-6.1,5.1l-2.1,4.5c-1.8,4-2.3,9.2-2.3,9.2c0,0.1-0.3,17.5-0.1,24.7
			c0.1,4.7,2.6,15.9,23.2,16.5c18,0.6,21.3-16.9,21.4-17.6l0.9-14.1c0,0,0.2-1.6-0.9-2.9c-0.8-1-2.2-1.5-4.1-1.5
			c-1.8,0-3.2,0.4-4.1,1.4c-1.3,1.3-1.3,3-1.3,3.3c0.3,1.4,0.2,9.5,0.1,13c-0.2,9.5-11.8,10.2-12,10.2c0,0-9.8,2.2-13.3-7.3
			c-3.4-9.3-0.9-24.4-0.8-25c0-0.4,0.9-10.3,7.6-11.3c7.1-1,10.4,1.3,13.8,5.6l0.1,0.2c0,0.2,0.9,3.8,6.1,3.8c5.1,0,5.2-3.2,5.2-3.4
			c0-0.2,0.1-16,0-18.9c-0.1-2.5-1-3.7-5.2-3.7c-3.7,0-4.6,3.5-4.6,3.5l-0.3,9.2l-1,0.1c0-0.1-1-3.4-7.1-4.4
			c-10.2-1.6-12.7-0.1-12.7-0.1L65.5,34l-0.6,0.2C65,34.5,65.3,34.5,65.4,34.5z"/>
	</g>
	<g>
		
			<linearGradient id="path3634_2_" gradientUnits="userSpaceOnUse" x1="118.5148" y1="121.2332" x2="121.9154" y2="38.7283" gradientTransform="matrix(1 0 0 -1 11.3127 129.3158)">
			<stop  offset="0" style="stop-color:#F88000"/>
			<stop  offset="1" style="stop-color:#FFD6A9"/>
		</linearGradient>
		<path id="path3634_1_" sodipodi:nodetypes="ccscccscccscsssscsssssssscssscssccsscsccc" class="st5" d="M131.1,14.1
			c-9.3,0-26.5,1.6-26.5,1.6s-7.3,1.2-7.6,5.8s6.1,5.2,6.1,5.2l4.9-0.3l0.6,17.3c0,0-4,0.6-4.3,4.6s5.2,5.5,5.2,5.5l1.5,22.8
			l-5.8,0.6c0,0-5.4,0.9-5.4,5.5c0,4.6,5.8,4.6,5.8,4.6s18.5-1.6,20.9-3.1s4.5-3.4,3.8-6.6s-4.5-3.3-6.3-3.2c-3,0.2-3.1,0.7-3.1-0.6
			c-0.2-6.7-0.8-22.3-0.8-22.3s3.4-2.6,6-1.8c2.5,0.7,7,1.5,9.5,8.2c0.7,2,1.9,7,2.3,9c1.5,8.5,1.6,15.7,5.5,19.1
			c4.8,4.2,5.1,3.7,9.3,3.7s10.8-3.6,12.3-7.4c1.5-3.9,1.9-7.2-1.1-9.1s-6.3-0.6-7.8,1.8c-1.5,2.4-1.3,5.4-1.3,5.4s-3.7,5.9-6.4-7.2
			c-0.8-3.6-0.1-6.9-0.3-9.1c-0.4-5.4-0.8-7.1-1.7-9.6c-1.1-3-4.8-9.8-5.2-9.7c0,0,10.5-3.6,10.2-15.7c-0.3-12.1-10-14-15.4-15.1
			C135,14.1,133.2,14,131.1,14.1z M119.6,23.6c0,0,7.2,0.1,11.9,0.4s8.3,2.7,9.1,7.2c0.7,4.5-4.3,6.8-4.3,6.8c0,0.2-7.2,1.9-8.8,1.6
			c-1.6-0.2-5.7,2-5.7,2l-1.6,0.3C120.2,42,119.6,23.6,119.6,23.6z"/>
		<path class="st3" d="M150.9,90.5c-2.8,0-3.8-0.3-7.8-3.9c-3.1-2.8-3.9-7.7-4.8-13.9c-0.3-1.8-0.5-3.6-0.9-5.5
			c-0.4-2-1.5-6.9-2.3-8.9c-2.3-6-6.1-7-8.6-7.7l-0.6-0.2c-1.9-0.6-4.6,1.1-5.3,1.6c0.1,2.1,0.6,15.9,0.8,22c0,0.1,0,0.2,0,0.3
			c0.2,0,0.4,0,0.6-0.1c0.4-0.1,1.1-0.1,1.9-0.2c3.7-0.2,6.2,1.1,6.8,3.5c0.8,3.6-1.7,5.7-4,7.1c-2.4,1.5-19.2,3-21.1,3.2
			c-0.1,0-1.6,0-3.1-0.6c-2.1-0.8-3.2-2.4-3.2-4.5c0-5,5.7-6,5.8-6l5.4-0.5l-1.4-22c-1.3-0.4-5.5-2.1-5.2-5.9c0.3-3.5,3.2-4.7,4.3-5
			L107.6,27l-4.4,0.3c-2.5-0.2-6.9-1.7-6.7-5.8c0.3-5,7.7-6.2,8-6.3c0.2,0,17.3-1.6,26.5-1.6l0,0c2.2,0,4,0.1,5,0.3
			c5.4,1.1,15.5,3,15.8,15.5c0.3,10.5-7.5,14.8-9.8,15.9c1.8,2.2,4.7,8.8,4.9,9.3c0.9,2.5,1.3,4.2,1.7,9.7c0.1,0.8,0,1.8,0,2.8
			c-0.1,1.8-0.2,3.9,0.3,6.2c1.4,6.7,3,8,3.8,8.1c0.8,0.1,1.4-0.7,1.7-1c0-0.7,0.1-3.3,1.4-5.5c0.9-1.4,2.3-2.5,4-2.8
			c1.5-0.3,3.1,0,4.5,0.9c3.5,2.3,2.5,6.4,1.3,9.7c-1.6,4.1-8.4,7.8-12.7,7.8c-0.4,0-0.8,0-1.1,0C151.3,90.5,151.1,90.5,150.9,90.5z
			 M125.1,49.4c0.4,0,0.8,0,1.1,0.2l0.6,0.2c2.6,0.7,6.8,1.9,9.3,8.4c0.8,2,1.9,7.1,2.3,9.1c0.3,1.9,0.6,3.8,0.9,5.6
			c0.9,6,1.6,10.7,4.5,13.3c4.2,3.6,4.7,3.6,7.8,3.6c0.3,0,0.7,0,1.1,0c4,0,10.4-3.5,11.8-7.1c1.7-4.5,1.5-7-0.9-8.5
			c-1.2-0.8-2.5-1-3.7-0.7c-1.4,0.3-2.6,1.2-3.3,2.4c-1.4,2.2-1.3,5.1-1.3,5.1l0,0.2l-0.1,0.1c0,0.1-1.2,1.8-2.8,1.5
			c-1.9-0.3-3.4-3.2-4.6-8.9c-0.5-2.4-0.4-4.7-0.3-6.5c0.1-1,0.1-1.9,0-2.7c-0.4-5.4-0.8-7-1.7-9.4c-1.1-3-4.3-8.9-5-9.4
			c0,0,0.2,0.1,0.4,0l-0.3-0.9c0.4-0.1,10.1-3.6,9.8-15.2c-0.3-11.7-9.8-13.6-15-14.6c-1-0.2-2.6-0.3-4.8-0.3l0,0
			c-9.2,0-26.3,1.6-26.4,1.6c0,0-6.9,1.2-7.2,5.3c-0.3,4.1,5.6,4.7,5.7,4.7l5.4-0.3l0.6,18.3l-0.4,0.1c-0.1,0-3.6,0.6-3.9,4.2
			c-0.3,3.6,4.8,5,4.9,5l0.3,0.1l1.5,23.6l-6.3,0.6c-0.2,0-4.9,0.9-4.9,5c0,1.7,0.9,2.9,2.6,3.6c1.3,0.5,2.7,0.5,2.7,0.5
			c5.1-0.4,18.8-1.9,20.6-3c2.1-1.3,4.2-3.1,3.5-6c-0.6-2.7-3.9-2.9-5.8-2.8c-0.8,0.1-1.4,0.1-1.8,0.2c-0.8,0.1-1.2,0.1-1.5-0.1
			c-0.3-0.3-0.3-0.6-0.3-1.1c-0.2-6.6-0.8-22.1-0.8-22.2l0-0.3l0.2-0.2C120,51.3,122.6,49.4,125.1,49.4z M119.7,42.6L119,23.1l0.5,0
			c0.1,0,7.2,0.1,12,0.4c5.3,0.3,8.8,3.1,9.6,7.6c0.8,4.8-4.5,7.4-4.6,7.4l0,0c-1,0.5-7.6,1.9-9.1,1.7c-1.2-0.2-4.3,1.3-5.4,1.9
			l-0.1,0.1L119.7,42.6z M120.1,24.1l0.6,17.3l1-0.2c0.7-0.4,4.2-2.2,5.9-2c1.3,0.2,7.3-1.1,8.4-1.5l0.2-0.1c0,0,4.7-2.3,4-6.3
			c-0.7-4-3.8-6.5-8.6-6.8C127.5,24.3,121.8,24.1,120.1,24.1z"/>
	</g>
	<g>
		
			<linearGradient id="path3653_2_" gradientUnits="userSpaceOnUse" x1="179.5509" y1="111.6882" x2="179.5509" y2="7.0526" gradientTransform="matrix(1 0 0 -1 11.3127 129.3158)">
			<stop  offset="0" style="stop-color:#F88000"/>
			<stop  offset="1" style="stop-color:#FFD6A9;stop-opacity:0.2404"/>
		</linearGradient>
		<path id="path3653_1_" class="st6" d="M187.1,6.2c-2.2,0-5,0.5-8.7,0.8c-8.5,0.7-16.1,1.3-14.9,7.8s16.9,0,16.9,0l-9,45.5h-11.5
			c0,0-4.9,1-5.1,4.6c-0.1,3.6,3.6,4.6,3.6,4.6s6.1,0.6,12,1.5c2.7,0.4,5.2,0,7.3,0.3c6.3,0.9,5.2-0.3,7.3-3.9s-2.3-4.8-2.3-4.8
			s-1.3,0.2-0.4-1.9s17.6-3.7,17.6-3.7l2.7,10.8c0,0-2.6,1.4-4,2.7c-4,3.7-1.3,7.3-1.3,7.3c-0.8,0.3,3.5,2.6,7.6,0.8
			c2.3-1,13.3-8.1,18.2-9.7c4.9-1.6,4.5-4.8,2.8-8.1c-1.6-3.3-5.7-2.2-5.7-2.2s-3.3,1.2-4.9,2.7s-3-0.9-3-0.9s-17.2-43.6-19.4-49.7
			C191.6,7.2,189.9,6.2,187.1,6.2z M188.3,30.1l7.9,17.2c0,0-11.3,2.1-11.3,1.8S188.3,30.1,188.3,30.1z"/>
		<path class="st3" d="M201.3,79.7c-2,0-3.6-0.6-4.3-1.1c-0.1-0.1-0.5-0.4-0.5-0.8c0,0,0,0,0,0c-0.6-1-2.1-4.3,1.6-7.7
			c1.2-1.1,3-2.1,3.8-2.6l-2.5-10c-7.8,0.8-16.3,2.3-16.8,3.4c-0.4,0.9-0.2,1.2-0.2,1.2c0,0,0.1,0,0.1,0l0.1,0l0.1,0
			c0.1,0,2.3,0.6,3,2.4c0.4,0.9,0.2,2-0.4,3.2c-0.4,0.7-0.7,1.3-0.9,1.8c-1.2,2.4-1.7,3.1-6.9,2.3c-1-0.1-2-0.1-3.2-0.1
			c-1.3,0-2.7,0-4.2-0.2c-5.8-0.8-11.9-1.5-11.9-1.5c-0.1,0-4.2-1.2-4-5.1c0.2-3.9,5.2-5,5.5-5.1l0.1,0h11.1l8.7-44.2
			c-2.7,1-11.1,3.9-14.9,1.8c-1-0.5-1.6-1.4-1.8-2.5c-0.3-1.7,0-3.2,0.8-4.3c2.2-2.9,7.8-3.4,14.2-4l0.3,0c1.5-0.1,2.8-0.3,4-0.4
			c1.8-0.2,3.4-0.4,4.7-0.4c3.3,0,5,1.4,6.2,4.8c2.2,6,19.2,49.2,19.4,49.7c0.1,0.2,0.7,1,1.3,1.1c0.3,0,0.6-0.1,0.9-0.3
			c1.7-1.5,5-2.7,5.1-2.8c1.6-0.4,4.8-0.4,6.3,2.5c0.8,1.5,1.7,3.8,0.9,5.7c-0.6,1.4-1.9,2.4-4,3.1c-3.2,1.1-9.2,4.5-13.5,7.1
			c-2.2,1.3-3.9,2.3-4.7,2.6C203.7,79.5,202.5,79.7,201.3,79.7z M197.9,78c1,0.6,3.8,1.3,6.7,0.1c0.7-0.3,2.5-1.4,4.6-2.6
			c4.4-2.6,10.4-6.1,13.7-7.2c1.8-0.6,2.9-1.4,3.4-2.5c0.5-1.2,0.2-2.7-0.9-4.9c-1.4-2.9-5-2-5.1-2l0,0c0,0-3.2,1.2-4.7,2.6
			c-0.7,0.6-1.3,0.7-1.7,0.6c-1.2-0.2-1.9-1.5-2-1.6c-0.2-0.5-17.2-43.7-19.4-49.8c-1.2-3.4-2.9-4.1-5.3-4.1l0,0
			c-1.3,0-2.8,0.2-4.6,0.4c-1.2,0.1-2.6,0.3-4.1,0.4l-0.3,0c-5.9,0.5-11.6,1-13.5,3.6c-0.7,0.9-0.9,2.1-0.6,3.6
			c0.2,0.8,0.6,1.4,1.3,1.8c4,2.2,14.8-2.2,14.9-2.2L181,14l-9.2,46.8h-11.9c-0.5,0.1-4.5,1.2-4.6,4.1c-0.1,3.2,3.2,4.1,3.2,4.1
			c0,0,6.1,0.6,11.9,1.5c1.4,0.2,2.7,0.2,4,0.2c1.2,0,2.3,0,3.3,0.1c4.7,0.7,4.9,0.3,5.8-1.8c0.3-0.5,0.5-1.1,1-1.9
			c0.5-0.9,0.6-1.6,0.4-2.3c-0.5-1.1-1.9-1.6-2.3-1.8c-0.2,0-0.6-0.1-0.9-0.4c-0.4-0.5-0.3-1.2,0.1-2.2c0.9-2.2,14-3.6,18-4l0.4,0
			l2.9,11.5l-0.3,0.2c0,0-2.6,1.4-3.9,2.6c-3.7,3.4-1.4,6.5-1.3,6.6L197.9,78L197.9,78z M185.1,49.6c-0.3,0-0.4-0.1-0.5-0.1
			l-0.2-0.2l0-0.2c0-0.3,2.1-12.1,3.4-19.1l0.3-1.6l8.9,19.2l-0.6,0.1C188.3,49.3,185.9,49.6,185.1,49.6z M188.6,31.8
			c-0.9,5.2-2.6,14.5-3,16.8c1.6-0.2,6.6-1,10-1.7L188.6,31.8z"/>
	</g>
	<g>
		
			<linearGradient id="path3672_2_" gradientUnits="userSpaceOnUse" x1="233.6277" y1="124.4684" x2="233.6277" y2="39.7087" gradientTransform="matrix(1 0 0 -1 11.3127 129.3158)">
			<stop  offset="0" style="stop-color:#F88000"/>
			<stop  offset="1" style="stop-color:#FFD6A9"/>
		</linearGradient>
		<path id="path3672_1_" sodipodi:nodetypes="cccsccssccscscscscsscsscc" class="st7" d="M239.4,26.1l0.3,52.5l-6.4,0.3
			c0,0-5.7,0.6-5.7,4.9c0,4.3,4.6,5.2,4.6,5.2l26.1-0.4c0,0,4.2-1,3.9-5.4c-0.3-4.3-2.5-5.1-4.6-5.1c-2.1,0-6.6-0.3-6.6-0.3
			l-0.9-53.1c0,0,16.8,0.5,16.7-0.9c-0.1-0.9-0.8,12.1-0.6,12.1c0,0-0.6,3.9,5.4,3.9s6-6,6-6s-0.1-10.1,0.4-13.1
			c0.6-3.1-0.9-5.8-0.9-5.8s-2.2-3.3-7.9-1.6c-5.7,1.6-24.9,2.4-24.9,2.4s-20.3-1.8-24.8-1s-6.9,1-7.8,4s3.4,22.5,3.4,22.5
			s0.3,5.7,4.3,5.4s5.5-0.1,5.5-6s-1.6-14.9-1.6-14.9L239.4,26.1L239.4,26.1z"/>
		<path class="st3" d="M232.2,89.6L232.2,89.6c-0.1,0-5.1-1-5.1-5.7c0-3.8,4-5.2,6.1-5.4l6-0.3l-0.3-51.6L224,26.2
			c0.4,2.1,1.5,9.5,1.5,14.4c0,5.8-1.6,6.2-5.5,6.4l-0.5,0c-1.1,0.1-2.1-0.2-2.8-0.9c-1.8-1.6-2-4.8-2-4.9
			c-0.4-1.9-4.3-19.7-3.4-22.7c1-3.2,3.5-3.6,7.7-4.3l0.4-0.1c4.5-0.7,24.1,1,24.9,1c0.1,0,19.2-0.8,24.7-2.4
			c5.9-1.7,8.4,1.7,8.5,1.8c0.1,0.2,1.6,2.9,1,6.2c-0.6,2.9-0.4,12.9-0.4,13c0,0.1-0.1,6.5-6.5,6.5c-2.3,0-4-0.6-5-1.7
			c-0.9-1.1-0.9-2.2-0.9-2.6c0-0.1,0-0.3,0-0.4c0-1.1,0.1-4.2,0.3-6.7c0.1-2,0.2-3.3,0.3-4.1c-3,0.8-11.9,0.6-15.6,0.5l0.9,52.1
			c1.2,0.1,4.4,0.3,6.1,0.3c3.2,0,4.9,1.8,5.1,5.5c0.3,4.7-4.2,5.9-4.3,5.9l-0.1,0L232.2,89.6z M222.8,25.2l17.1,0.5l0.3,53.5
			l-6.9,0.3c-0.2,0-5.2,0.6-5.2,4.4c0,3.7,3.7,4.6,4.2,4.7l26-0.4c0.5-0.1,3.7-1.2,3.5-4.8c-0.3-4.1-2.4-4.6-4.1-4.6
			c-2.1,0-6.4-0.3-6.6-0.3l-0.5,0l-0.9-54.1l0.5,0c7.2,0.2,15.2,0.1,16.2-0.6c0.1-0.4,0.2-0.4,0.4-0.4l0.5,0l0,0.5
			c0,0.1,0,0.2-0.1,0.3c-0.2,1.5-0.6,9.4-0.6,11.3h0.1l-0.1,0.6c0,0-0.1,1.1,0.6,1.9c0.8,0.9,2.2,1.4,4.2,1.4c5.4,0,5.5-5.2,5.5-5.5
			c0-0.4-0.1-10.2,0.5-13.2c0.6-2.9-0.8-5.5-0.8-5.5c-0.1-0.1-2.1-2.9-7.3-1.4c-5.7,1.6-24.3,2.4-25,2.4c-0.3,0-20.3-1.8-24.7-1.1
			l-0.4,0.1c-4.1,0.7-6.1,1-6.9,3.6c-0.7,2.3,2.2,16.9,3.4,22.3c0,0.1,0.2,3,1.7,4.3c0.6,0.5,1.3,0.7,2.1,0.7l0.5,0
			c3.6-0.3,4.6-0.3,4.6-5.4c0-5.7-1.6-14.7-1.6-14.8L222.8,25.2z"/>
	</g>
	<g>
		
			<linearGradient id="path3614-9_2_" gradientUnits="userSpaceOnUse" x1="66.137" y1="116.6942" x2="66.137" y2="46.8435" gradientTransform="matrix(1 0 0 -1 232.1143 127.2351)">
			<stop  offset="0" style="stop-color:#F88000"/>
			<stop  offset="1" style="stop-color:#FFD6A9"/>
		</linearGradient>
		<path id="path3614-9_1_" sodipodi:nodetypes="csccsscsscsccsscscscscsc" class="st8" d="M310.1,61.1c0,0-0.1-5.4,6-5.2
			c6.1,0.1,5.5,4.9,5.5,4.9l-0.9,14.2c0,0-3.3,18.7-21.9,18.1c-18.7-0.6-23.6-9.7-23.7-17c-0.1-7.3,0.1-24.8,0.1-24.8
			s0.5-5.3,2.4-9.4l2.1-4.5c1.1-2.3,6.5-5.7,6.6-5.4c0-0.1,2.6-1.6,13.1,0c6.5,1,7.5,4.8,7.5,4.8l0.3-9.3c0,0,0.9-3.9,5.1-3.9
			s5.5,1.2,5.7,4.2c0.1,3,0,19,0,19s0,3.9-5.7,3.9s-6.6-4.2-6.6-4.2c-3.1-4-6.2-6.4-13.3-5.4c-6.4,0.9-7.2,10.9-7.2,10.9
			s-2.7,15.5,0.7,24.8c3.4,9.3,12.8,7,12.8,7s11.3-0.6,11.5-9.7S310.2,61.4,310.1,61.1L310.1,61.1z"/>
		<path class="st3" d="M299.6,93.5c-0.3,0-0.6,0-0.9,0C277.1,92.8,274.6,81,274.5,76c-0.1-7.2,0.1-24.6,0.1-24.8
			c0-0.3,0.5-5.5,2.4-9.6l2.1-4.5c1-2.1,5.7-5.4,6.9-5.7c1-0.5,4.7-1.3,13.4,0c3.9,0.6,5.9,2.2,6.9,3.4l0.2-7.4c0-0.1,1-4.4,5.6-4.4
			c4.3,0,6,1.3,6.2,4.7c0.1,3,0,18.3,0,19c0,0-0.1,4.4-6.2,4.4c-5.4,0-6.8-3.7-7-4.5c-3.2-4.1-6.1-6.1-12.8-5.1
			c-5.9,0.8-6.7,10.3-6.7,10.4c0,0.2-2.6,15.5,0.7,24.6c3.2,8.7,11.9,6.8,12.3,6.7c0.5,0,11-0.7,11.1-9.2c0.2-9.3,0-12.4-0.1-12.8
			l0-0.1l0-0.1c0-0.1,0-2.4,1.6-4.1c1.1-1.1,2.8-1.7,4.9-1.6c2.2,0.1,3.9,0.7,4.9,1.9c1.4,1.6,1.1,3.5,1.1,3.6L321.2,75
			C321.1,75.2,317.7,93.5,299.6,93.5z M286.2,32.4c-0.6,0.1-5.2,3.2-6.1,5.1L278,42c-1.8,4-2.3,9.2-2.3,9.2c0,0.1-0.3,17.5-0.1,24.7
			c0.1,4.7,2.6,15.9,23.2,16.5c0.3,0,0.6,0,0.8,0c17.3,0,20.6-17.5,20.6-17.7l0.9-14.1c0,0,0.2-1.6-0.9-2.9c-0.8-1-2.2-1.5-4.1-1.5
			c-1.8,0-3.2,0.4-4.1,1.3c-1.3,1.3-1.3,3.1-1.3,3.3c0.3,1.4,0.2,9.5,0.1,13c-0.2,9.5-11.8,10.2-12,10.2c0,0-9.8,2.2-13.3-7.3
			c-3.4-9.3-0.9-24.4-0.8-25c0-0.4,0.9-10.3,7.6-11.3c7.1-1,10.4,1.3,13.8,5.6l0.1,0.2c0,0.2,0.9,3.8,6.1,3.8c5.1,0,5.2-3.2,5.2-3.4
			c0-0.2,0.1-16,0-18.9c-0.1-2.5-1-3.7-5.2-3.7c-3.7,0-4.6,3.4-4.6,3.5l-0.3,9.2l-1,0.1c0-0.1-1-3.4-7.1-4.4
			c-10.2-1.6-12.7-0.1-12.7-0.1l-0.3-0.4l-0.6,0.2C285.8,32.4,286,32.5,286.2,32.4z"/>
	</g>
	<g>
		
			<linearGradient id="path3655_2_" gradientUnits="userSpaceOnUse" x1="341.9259" y1="122.824" x2="341.9259" y2="25.8763" gradientTransform="matrix(1 0 0 -1 11.3127 129.3158)">
			<stop  offset="0" style="stop-color:#F88000"/>
			<stop  offset="1" style="stop-color:#FFD6A9"/>
		</linearGradient>
		<path id="path3655_1_" sodipodi:nodetypes="ccsccssssssccsscsscccccsscsscccsccsssc" class="st9" d="M342.8,80.9l-0.4-21.1
			c0,0,14.6-3.2,18.4-3.2s3.6,0,3.6,0l1.5,33.8c0,0-5.3,0.8-8.2,1.9s-6.3,1.7-5.7,6.3c0.6,4.6,6.1,4.9,8.9,3.8
			c2.7-1.1,11.4-4,17.3-3.4s8.7-2.5,8.4-5.5c-0.2-3-2.1-5.7-5.3-5.5c-3.2,0.2-5.1,0.2-5.1,0.2L374.9,18c0,0,11.2,0.6,11.2-5.5
			S382.5,7,379.3,7c-3.2,0-18.8,0-18.8,0s-7.2,0.8-7.4,5.1s2.5,5.9,7.4,6.5s3.2,0,3.2,0l1.7,27L343,47.5l-0.2-23.6l5.9-0.2
			c0,0,5.3-1.1,5.5-5.3c0.2-4.2-3.8-5.7-6.3-5.7s-20.3,0-20.3,0s-7.4,0.4-7.6,5.7c-0.2,5.3,4,6.1,5.9,6.1s6.1,0.2,6.1,0.2l0.2,56.1
			l-7.2,0.2c0,0-5.1,0.8-4.9,4.6c0.2,3.8,4.9,5.3,4.9,5.3h8.7c0,0,11.1,1.4,13.9,1.3c4.4-0.1,6-1.8,6.1-5.5c0.1-3.8-5.1-5.3-6.5-5.3
			S342.8,80.9,342.8,80.9L342.8,80.9z"/>
		<path class="st3" d="M357.7,103.4c-1.3,0-2.7-0.3-3.9-1c-1.4-0.8-2.2-2.1-2.5-3.8c-0.6-4.6,2.5-5.7,5.2-6.6
			c0.3-0.1,0.6-0.2,0.8-0.3c2.5-0.9,6.5-1.6,7.9-1.8l-1.4-32.9h-3.1c-3.4,0-15.5,2.6-17.9,3.1l0.4,20.3c1.4,0.3,3,0.5,3.9,0.5
			c1.1,0,4,0.7,5.7,2.5c0.9,1,1.4,2.1,1.4,3.3c-0.1,4.1-2.1,5.8-6.6,6c-2.8,0.1-13.6-1.2-14-1.3l-8.7,0l-0.1,0
			c-0.2-0.1-5-1.6-5.2-5.7c-0.2-3.4,3.4-4.8,5.3-5.2l6.8-0.2l-0.2-55.2c-1.2-0.1-4.1-0.2-5.6-0.2c-0.7,0-3.2-0.1-4.9-1.9
			c-1.1-1.2-1.6-2.8-1.6-4.8c0.2-5.7,8-6.2,8.1-6.2l20.3,0c1.5,0,3.4,0.4,4.9,1.7c-0.1-0.5-0.1-1.1-0.1-1.8c0.2-4.6,7.5-5.5,7.8-5.5
			l18.8,0c0.3,0,0.5,0,0.8,0c1.8,0,3.7-0.1,5,1.2c1,1,1.5,2.5,1.5,4.8c0,1.4-0.5,2.5-1.5,3.4c-2.6,2.5-8,2.6-9.7,2.6l1.2,69.3
			c0.7,0,2.3-0.1,4.5-0.2c3.5-0.2,5.6,2.8,5.8,6c0.1,1.5-0.5,3-1.6,4.1c-1.6,1.6-4.3,2.3-7.4,1.9c-6.4-0.7-16,2.9-17.1,3.3
			C360,103.2,358.9,103.4,357.7,103.4z M364.8,56.6l1.5,34.2l-0.4,0.1c-0.1,0-5.3,0.8-8.1,1.9c-0.3,0.1-0.6,0.2-0.9,0.3
			c-2.7,0.9-5,1.7-4.5,5.5c0.2,1.4,0.9,2.4,2,3.1c1.8,1.1,4.5,1,6.2,0.3c1.1-0.4,10.9-4.1,17.5-3.4c2.8,0.3,5.2-0.3,6.6-1.7
			c0.9-0.9,1.4-2.1,1.3-3.3c-0.2-2.6-1.9-5.2-4.7-5c-3.2,0.2-5.1,0.2-5.1,0.2l-0.5,0l-1.3-71.3l0.5,0c0.1,0,6.7,0.3,9.5-2.3
			c0.8-0.7,1.2-1.6,1.2-2.7c0-2-0.4-3.3-1.2-4.1c-1-1-2.6-1-4.3-0.9c-0.3,0-0.6,0-0.8,0h-18.8c0,0-6.7,0.8-6.9,4.6
			c-0.2,3.6,1.8,5.4,7,6c1.4,0.2,2.1,0.2,2.6,0.3l0-0.5l0.7,0.3c0.6,0.2,0.6,0.6,0.6,0.8c0,0.1-0.1,0.3-0.2,0.3l1.7,26.8l-23.4,2
			l-0.2-24.7l6.4-0.2c0,0,4.8-1,5-4.8c0.1-1.3-0.3-2.5-1.2-3.4c-1.3-1.3-3.3-1.8-4.7-1.8h-20.3c0,0-6.9,0.5-7.1,5.2
			c-0.1,1.7,0.4,3.1,1.3,4c1.4,1.5,3.5,1.6,4.1,1.6c1.9,0,6,0.2,6.1,0.2l0.5,0l0.2,57.1l-7.7,0.2c-0.1,0-4.6,0.8-4.4,4.1
			c0.2,3.2,3.9,4.6,4.4,4.8h8.6c0.2,0,11.2,1.4,13.9,1.3c4-0.1,5.6-1.5,5.6-5c0-1-0.3-1.8-1.1-2.6c-1.5-1.5-4.1-2.2-5-2.2
			c-1.5,0-4.4-0.6-4.5-0.6l-0.4-0.1l-0.4-21.9l0.4-0.1c0.6-0.1,14.7-3.2,18.5-3.2h3.6v0.5L364.8,56.6z M343.3,24.4l0.2,22.6
			l21.3-1.8l-1.6-25.8c-0.6,0-1.5-0.1-2.8-0.3c-2.1-0.3-4.3-0.8-5.8-2c0.1,0.4,0.1,0.9,0.1,1.3c-0.2,4.6-5.7,5.7-5.9,5.7L343.3,24.4
			z"/>
	</g>
</g>
</svg>
